<svg width="20" height="20" viewBox="0 0 20 20" fill="none" xmlns="http://www.w3.org/2000/svg">
<path d="M16.6667 7.96417V2.5H15.0001V4.16667H5.00008V2.5H3.33341V7.96417C2.34175 8.54167 1.66675 9.60417 1.66675 10.8333V14.1667C1.66675 14.3877 1.75455 14.5996 1.91083 14.7559C2.06711 14.9122 2.27907 15 2.50008 15H3.33341V18.3333H5.00008V15H15.0001V18.3333H16.6667V15H17.5001C17.7211 15 17.9331 14.9122 18.0893 14.7559C18.2456 14.5996 18.3334 14.3877 18.3334 14.1667V10.8333C18.3334 9.60417 17.6576 8.54167 16.6667 7.96417ZM15.0001 5.83333V7.5H10.8334V5.83333H15.0001ZM5.00008 5.83333H9.16675V7.5H5.00008V5.83333ZM16.6667 13.3333H3.33341V10.8333C3.33341 9.91417 4.08091 9.16667 5.00008 9.16667H15.0001C15.9192 9.16667 16.6667 9.91417 16.6667 10.8333V13.3333Z" fill="#629136"/>
</svg>
